# xmcd
#
# Track frame offsets: 
#        150
#        12005
#        33900
#        47755
#        59248
#        72339
#        86814
#        101434
#        113809
#        125409
#        141094
#        153015
#        179340
#        191330
#        203002
#        217972
#        230574
#        254086
#        265179
#        276140
#        288528
#        302240
#        316322
#        328007
#        344180
#
# Disc length: 4779 seconds
#
# Revision: 0
# Processed by: cddbd v1.5.2PL0 Copyright (c) Steve Scherf et al.
# Submitted via: ExactAudioCopy v1.0b1
#
DISCID=7d12a919
DTITLE=Various Artist - A History Of The Blues, Part 1 [CD2]
DYEAR=2010
DGENRE=Blues
TTITLE0=John Lee Hooker - Boom Boom
TTITLE1=Muddy Waters - I'm Your Hoochie Coochie Man
TTITLE2=Slim Harpo - I'm A King Bee
TTITLE3=Albert King - Kansas City
TTITLE4=B.B. King - Someday Baby
TTITLE5=Otis Rush - So Many Roads, So Many Trains
TTITLE6=Muddy Waters - Good Morning Little School Girl
TTITLE7=Elmore James - Dust My Broom
TTITLE8=Sonny Boy Williamson - Don't Start Me To Talkin'
TTITLE9=Muddy Waters - Big Leg Woman
TTITLE10=Memphis Slim - Not So Stuck On Me
TTITLE11=B.B. King - Watch Yourself
TTITLE12=Champion Jack Dupree - When Things Go Wrong
TTITLE13=Albert King - Crosscut Saw
TTITLE14=Buddy Guy - Night Flight
TTITLE15=Howlin' Wolf - Spoonful
TTITLE16=Muddy Waters - My Captain
TTITLE17=Memphis Slim - I Feel Like Ballin' The Jack
TTITLE18=Champion Jack Dupree - Caldonia
TTITLE19=Aretha Franklin - (You Make Me Feel Like) A Natural Woman
TTITLE20=Koko Taylor - Wang Dang Doodle
TTITLE21=Wilson Pickett - Mustang Sally
TTITLE22=Etta James - I'd Rather Go Blind
TTITLE23=Aretha Franklin - I Say A Little Prayer
TTITLE24=Wilson Pickett - Sunny
EXTD=
EXTT0=
EXTT1=
EXTT2=
EXTT3=
EXTT4=
EXTT5=
EXTT6=
EXTT7=
EXTT8=
EXTT9=
EXTT10=
EXTT11=
EXTT12=
EXTT13=
EXTT14=
EXTT15=
EXTT16=
EXTT17=
EXTT18=
EXTT19=
EXTT20=
EXTT21=
EXTT22=
EXTT23=
EXTT24=
PLAYORDER=
